<svg width="80" height="80" viewBox="0 0 80 80" fill="none" xmlns="http://www.w3.org/2000/svg">
<path d="M39.9995 80C29.3202 80 19.2643 75.8425 11.7187 68.2813C4.15643 60.7347 0 50.6788 0 39.9995C0 29.3202 4.15643 19.2643 11.7187 11.7187C19.2643 4.15643 29.3202 0 39.9995 0C50.6788 0 60.7347 4.15643 68.2803 11.7187C75.8425 19.2799 79.999 29.3202 79.999 39.9995C79.999 50.6788 75.8425 60.7347 68.2803 68.2813C60.7347 75.8425 50.6788 80 39.9995 80ZM39.9995 2.39774C29.9592 2.39774 20.5111 6.31439 13.4127 13.4127C6.31439 20.5111 2.39774 29.9603 2.39774 39.9995C2.39774 50.0397 6.31439 59.4879 13.4127 66.5862C20.5111 73.6846 29.9592 77.6012 39.9995 77.6012C50.0397 77.6012 59.4879 73.6846 66.5862 66.5862C73.6846 59.4879 77.6012 50.0397 77.6012 39.9995C77.6012 29.9603 73.6846 20.5111 66.5862 13.4127C59.4879 6.31439 50.0397 2.39774 39.9995 2.39774Z" fill="#FDFBF5"/>
</svg>
