<svg width="93" height="80" viewBox="0 0 93 80" fill="none" xmlns="http://www.w3.org/2000/svg">
<g clip-path="url(#clip0_35_214)">
<path d="M46.2147 1.19374C34.9267 1.19374 25.7431 10.3774 25.7431 21.6654C25.7431 32.9534 34.9267 42.1351 46.2147 42.1351C57.5028 42.1351 66.6844 32.9534 66.6844 21.6654C66.6844 10.3774 57.5028 1.19374 46.2147 1.19374ZM46.2147 43.3308C34.2695 43.3308 24.5493 33.6107 24.5493 21.6654C24.5493 9.72014 34.2695 0 46.2147 0C58.16 0 67.8801 9.72014 67.8801 21.6654C67.8801 33.6107 58.16 43.3308 46.2147 43.3308Z" fill="#FDFBF5"/>
<path d="M46.215 3.82877C36.3801 3.82877 28.3783 11.8306 28.3783 21.6656C28.3783 31.5005 36.3801 39.5023 46.215 39.5023C56.05 39.5023 64.0518 31.5005 64.0518 21.6656C64.0518 11.8306 56.05 3.82877 46.215 3.82877ZM46.215 40.696C35.7209 40.696 27.1826 32.1597 27.1826 21.6656C27.1826 11.1714 35.7209 2.63306 46.215 2.63306C56.7092 2.63306 65.2455 11.1714 65.2455 21.6656C65.2455 32.1597 56.7092 40.696 46.215 40.696Z" fill="#FDFBF5"/>
<path d="M46.2145 6.46156C37.8306 6.46156 31.0107 13.2815 31.0107 21.6654C31.0107 30.0492 37.8306 36.8691 46.2145 36.8691C54.5983 36.8691 61.4183 30.0492 61.4183 21.6654C61.4183 13.2815 54.5983 6.46156 46.2145 6.46156ZM46.2145 38.0629C37.1734 38.0629 29.8169 30.7065 29.8169 21.6654C29.8169 12.6242 37.1734 5.26782 46.2145 5.26782C55.2556 5.26782 62.612 12.6242 62.612 21.6654C62.612 30.7065 55.2556 38.0629 46.2145 38.0629Z" fill="#FDFBF5"/>
<path d="M46.2148 9.09461C39.284 9.09461 33.6439 14.7347 33.6439 21.6655C33.6439 28.5963 39.284 34.2364 46.2148 34.2364C53.1456 34.2364 58.7856 28.5963 58.7856 21.6655C58.7856 14.7347 53.1456 9.09461 46.2148 9.09461ZM46.2148 35.4301C38.6248 35.4301 32.4502 29.2555 32.4502 21.6655C32.4502 14.0755 38.6248 7.90088 46.2148 7.90088C53.8048 7.90088 59.9794 14.0755 59.9794 21.6655C59.9794 29.2555 53.8048 35.4301 46.2148 35.4301Z" fill="#FDFBF5"/>
<path d="M46.2151 11.7295C40.7354 11.7295 36.2792 16.1857 36.2792 21.6654C36.2792 27.1451 40.7354 31.6014 46.2151 31.6014C51.6948 31.6014 56.151 27.1451 56.151 21.6654C56.151 16.1857 51.6948 11.7295 46.2151 11.7295ZM46.2151 32.7971C40.0781 32.7971 35.0835 27.8024 35.0835 21.6654C35.0835 15.5265 40.0781 10.5338 46.2151 10.5338C52.352 10.5338 57.3467 15.5265 57.3467 21.6654C57.3467 27.8024 52.352 32.7971 46.2151 32.7971Z" fill="#FDFBF5"/>
<path d="M46.215 14.3625C42.1883 14.3625 38.912 17.6388 38.912 21.6654C38.912 25.6921 42.1883 28.9684 46.215 28.9684C50.2416 28.9684 53.5179 25.6921 53.5179 21.6654C53.5179 17.6388 50.2416 14.3625 46.215 14.3625ZM46.215 30.1621C41.5291 30.1621 37.7183 26.3513 37.7183 21.6654C37.7183 16.9796 41.5291 13.1667 46.215 13.1667C50.9008 13.1667 54.7117 16.9796 54.7117 21.6654C54.7117 26.3513 50.9008 30.1621 46.215 30.1621Z" fill="#FDFBF5"/>
<path d="M46.2149 16.9954C43.6393 16.9954 41.5449 19.0899 41.5449 21.6654C41.5449 24.239 43.6393 26.3354 46.2149 26.3354C48.7904 26.3354 50.8849 24.239 50.8849 21.6654C50.8849 19.0899 48.7904 16.9954 46.2149 16.9954ZM46.2149 27.5291C42.9821 27.5291 40.3511 24.8982 40.3511 21.6654C40.3511 18.4326 42.9821 15.8016 46.2149 15.8016C49.4477 15.8016 52.0786 18.4326 52.0786 21.6654C52.0786 24.8982 49.4477 27.5291 46.2149 27.5291Z" fill="#FDFBF5"/>
<path d="M46.2152 19.6284C45.0927 19.6284 44.1781 20.543 44.1781 21.6654C44.1781 22.7879 45.0927 23.7005 46.2152 23.7005C47.3377 23.7005 48.2523 22.7879 48.2523 21.6654C48.2523 20.543 47.3377 19.6284 46.2152 19.6284ZM46.2152 24.8962C44.4335 24.8962 42.9844 23.4471 42.9844 21.6654C42.9844 19.8837 44.4335 18.4346 46.2152 18.4346C47.9969 18.4346 49.446 19.8837 49.446 21.6654C49.446 23.4471 47.9969 24.8962 46.2152 24.8962Z" fill="#FDFBF5"/>
<path d="M6.06392 65.4804C3.95756 65.4804 2.40749 65.0488 1.41568 64.1817C0.532747 63.4176 0.0932617 62.3723 0.0932617 61.046C0.0932617 59.7216 0.532747 58.6743 1.41568 57.9023C2.40749 57.0431 3.95756 56.6115 6.06392 56.6115C7.29923 56.6115 8.32073 56.754 9.12844 57.0391C9.93614 57.3202 10.5617 57.7043 11.0052 58.1952C11.4526 58.6862 11.7515 59.2484 11.9 59.8819H8.1386C7.76247 59.2227 7.07157 58.8921 6.06392 58.8921C5.19683 58.8921 4.56136 59.1414 4.15553 59.6363C3.83284 60.0323 3.67249 60.5035 3.67249 61.046C3.67249 61.5904 3.83284 62.0595 4.15553 62.4555C4.56136 62.9524 5.19683 63.1997 6.06392 63.1997C7.07157 63.1997 7.76247 62.8671 8.1386 62.202H11.9C11.7515 62.8414 11.4526 63.4057 11.0052 63.8967C10.5617 64.3876 9.93614 64.7755 9.12844 65.0606C8.32073 65.3398 7.29923 65.4804 6.06392 65.4804Z" fill="#FDFBF5"/>
<path d="M24.9518 65.2982H21.5784C21.4201 65.0824 21.3092 64.8073 21.2459 64.4747C21.1924 64.2213 21.1112 63.9719 21.0004 63.7224C20.8895 63.475 20.6955 63.2691 20.4223 63.1048C20.1531 62.9424 19.7512 62.8514 19.2187 62.8355H16.8985V65.2982H13.3193V56.7778H19.1316C20.5253 56.7778 21.6457 56.8807 22.497 57.0866C23.3522 57.2925 23.9738 57.6211 24.3658 58.0685C24.7558 58.512 24.9518 59.094 24.9518 59.8106C24.9518 60.4085 24.8172 60.9113 24.5479 61.3231C24.2787 61.7309 23.8511 62.0516 23.2651 62.2891C23.8293 62.5227 24.1955 62.8019 24.3658 63.1285C24.5341 63.4571 24.637 63.8155 24.6746 64.2055C24.7162 64.5539 24.8092 64.9181 24.9518 65.2982ZM16.8985 60.7371L18.9415 60.7292C19.5117 60.7292 19.9591 60.7054 20.2877 60.6579C20.6143 60.6064 20.8539 60.5352 21.0083 60.4441C21.1667 60.355 21.2657 60.258 21.3092 60.1511C21.3567 60.0403 21.3805 59.9274 21.3805 59.8106C21.3805 59.6958 21.3567 59.581 21.3092 59.4701C21.2657 59.3592 21.1667 59.2603 21.0083 59.1692C20.8539 59.0801 20.6143 59.0108 20.2877 58.9633C19.9591 58.9118 19.5117 58.8841 18.9415 58.8841H16.8985V60.7371Z" fill="#FDFBF5"/>
<path d="M36.6351 65.2982H26.3726V56.7778H36.1679V58.8841H29.9518V60.2224H35.2018V61.8615H29.9518V63.1919H36.6351V65.2982Z" fill="#FDFBF5"/>
<path d="M51.4217 65.2982H47.7949L46.9951 63.9046H41.6184L40.8186 65.2982H37.1919L42.6478 56.7778H45.9657L51.4217 65.2982ZM45.7915 61.7903L44.3107 59.2088L42.822 61.7903H45.7915Z" fill="#FDFBF5"/>
<path d="M58.7689 65.2982H55.1976V58.8841H51.856V56.7778H62.1106V58.8841H58.7689V65.2982Z" fill="#FDFBF5"/>
<path d="M66.9869 65.2982H63.4077V56.7778H66.9869V65.2982Z" fill="#FDFBF5"/>
<path d="M76.1184 65.2982H72.7926L68.0176 56.7778H71.6444L74.4555 62.8672L77.2666 56.7778H80.8933L76.1184 65.2982Z" fill="#FDFBF5"/>
<path d="M92.1849 65.2982H81.9224V56.7778H91.7177V58.8841H85.5016V60.2224H90.7517V61.8615H85.5016V63.1919H92.1849V65.2982Z" fill="#FDFBF5"/>
<path d="M18.6644 80C17.5122 80 16.5837 79.8753 15.877 79.6279C15.1742 79.3804 14.6377 79.0399 14.2695 78.6063C13.8993 78.1748 13.6519 77.6759 13.5252 77.1097H17.3261C17.6052 77.5116 18.0507 77.7115 18.6644 77.7115C19.2761 77.7115 19.7255 77.5116 20.0105 77.1097C20.0303 77.0682 20.0422 77.0305 20.0422 76.9989C20.0422 76.8939 19.8997 76.8148 19.6146 76.7613C19.3335 76.7098 18.9118 76.6702 18.3476 76.6425C17.6389 76.6109 16.8945 76.5356 16.1146 76.4129C14.3764 76.1437 13.5093 75.4448 13.5093 74.3144C13.5093 74.2194 13.5133 74.1204 13.5252 74.0135C13.6519 73.4493 13.8993 72.9505 14.2695 72.5169C14.6377 72.0853 15.1742 71.7448 15.877 71.4954C16.5837 71.2479 17.5122 71.1232 18.6644 71.1232C19.8145 71.1232 20.741 71.2479 21.4438 71.4954C22.1505 71.7448 22.689 72.0853 23.0592 72.5169C23.4274 72.9505 23.6769 73.4493 23.8036 74.0135H20.0105C19.7255 73.6136 19.2761 73.4117 18.6644 73.4117C18.0507 73.4117 17.6052 73.6136 17.3261 74.0135C17.3043 74.0452 17.2944 74.0749 17.2944 74.1006C17.2944 74.1957 17.4291 74.2669 17.6983 74.3144C17.9715 74.362 18.3733 74.4015 18.9019 74.4332C19.4285 74.4649 19.9907 74.5183 20.5886 74.5916C21.1845 74.6609 21.7447 74.7816 22.2673 74.9559C22.79 75.1301 23.1958 75.3914 23.4868 75.7398C23.7184 76.0051 23.8352 76.3396 23.8352 76.7455C23.8352 76.8623 23.8234 76.983 23.8036 77.1097C23.6769 77.6759 23.4274 78.1748 23.0592 78.6063C22.689 79.0399 22.1505 79.3804 21.4438 79.6279C20.741 79.8753 19.8145 80 18.6644 80Z" fill="#FDFBF5"/>
<path d="M31.5702 79.8179H27.9989V73.4038H24.6572V71.2974H34.9118V73.4038H31.5702V79.8179Z" fill="#FDFBF5"/>
<path d="M41.2533 80C39.1727 80 37.7097 79.5704 36.8664 78.7093C36.1537 77.9808 35.7974 76.9335 35.7974 75.5656V71.2974H39.3687V75.5656C39.3687 76.1575 39.4677 76.6267 39.6696 76.9751C39.9586 77.466 40.4872 77.7115 41.2533 77.7115C42.0234 77.7115 42.552 77.466 42.837 76.9751C43.037 76.6168 43.1379 76.1476 43.1379 75.5656V71.2974H46.7172V75.6131C46.7172 76.9494 46.3628 77.9808 45.6561 78.7093C44.8009 79.5704 43.332 80 41.2533 80Z" fill="#FDFBF5"/>
<path d="M53.8957 79.8179H48.1943V71.2974H53.8957C56.2278 71.2974 57.9045 71.6221 58.9241 72.2714C59.7476 72.8 60.2168 73.5186 60.3336 74.4253C60.385 74.8173 60.4128 75.1934 60.4128 75.5577C60.4128 75.918 60.385 76.2941 60.3336 76.69C60.2861 77.086 60.1534 77.47 59.9376 77.8382C59.7258 78.2084 59.3873 78.541 58.9241 78.836C58.4588 79.1329 57.8194 79.3705 57.0077 79.5487C56.2 79.7288 55.1627 79.8179 53.8957 79.8179ZM53.5552 77.7115C55.3765 77.7115 56.4059 77.2522 56.6435 76.3337C56.7068 76.0763 56.7385 75.817 56.7385 75.5577C56.7385 75.3003 56.7029 75.0429 56.6356 74.7895C56.5722 74.5322 56.4336 74.2986 56.2238 74.0927C56.012 73.8829 55.6932 73.7166 55.2656 73.5938C54.842 73.4671 54.2719 73.4038 53.5552 73.4038H51.7735V77.7115H53.5552Z" fill="#FDFBF5"/>
<path d="M65.4084 79.8179H61.8291V71.2974H65.4084V79.8179Z" fill="#FDFBF5"/>
<path d="M72.7978 80C70.6914 80 69.1414 79.5685 68.1496 78.7014C67.2666 77.9313 66.8271 76.884 66.8271 75.5577C66.8271 74.2392 67.2666 73.194 68.1496 72.4219C69.1414 71.5568 70.6914 71.1232 72.7978 71.1232C74.9042 71.1232 76.4523 71.5568 77.4461 72.4219C78.327 73.194 78.7685 74.2392 78.7685 75.5577C78.7685 76.884 78.327 77.9313 77.4461 78.7014C76.4523 79.5685 74.9042 80 72.7978 80ZM72.7978 77.7115C73.657 77.7115 74.2905 77.4661 74.6983 76.9751C75.019 76.5752 75.1813 76.1021 75.1813 75.5577C75.1813 75.0152 75.019 74.5441 74.6983 74.1482C74.2905 73.6532 73.657 73.4038 72.7978 73.4038C71.9307 73.4038 71.2952 73.6532 70.8894 74.1482C70.5667 74.5441 70.4064 75.0152 70.4064 75.5577C70.4064 76.1021 70.5667 76.5752 70.8894 76.9751C71.2952 77.4661 71.9307 77.7115 72.7978 77.7115Z" fill="#FDFBF5"/>
</g>
<defs>
<clipPath id="clip0_35_214">
<rect width="93" height="80" fill="white"/>
</clipPath>
</defs>
</svg>
