<svg width="148" height="42" viewBox="0 0 148 42" fill="none" xmlns="http://www.w3.org/2000/svg">
<g clip-path="url(#clip0_35_269)">
<path fill-rule="evenodd" clip-rule="evenodd" d="M0.54834 0H147.965V42H0.54834V0ZM2.54834 2V40H145.965V2H2.54834Z" fill="#FDFBF5"/>
<path d="M5.47803 4.76294H74.2259V37.2629H5.47803V4.76294Z" fill="#FDFBF5"/>
<path d="M14.1834 26.5019H15.4638L19.8019 15.5796H18.3501L16.525 20.1825L14.8236 24.5206L13.107 20.1825L11.2971 15.5796H9.83008L14.1834 26.5019Z" fill="#FDFBF5"/>
<path d="M22.8403 26.5019H24.214V15.5796H22.8403V26.5019Z" fill="#FDFBF5"/>
<path d="M32.2184 26.7038C34.6055 26.7038 36.1507 25.5341 36.1507 23.6309C36.1507 22.0228 35.0743 21.0571 32.2813 20.3692C30.1589 19.8548 29.4558 19.2928 29.4558 18.3878C29.4558 17.3418 30.3933 16.6864 31.9536 16.6864C33.5595 16.6864 34.5578 17.4981 34.5903 18.8088H35.9467C35.9315 16.6864 34.4015 15.3757 31.9536 15.3757C29.5643 15.3757 28.0517 16.5475 28.0517 18.3878C28.0517 20.074 29.254 21.0094 31.9362 21.6495C33.9024 22.1161 34.7292 22.663 34.7292 23.6786C34.7292 24.755 33.7635 25.393 32.2184 25.393C30.517 25.393 29.3321 24.551 29.2995 23.1469H27.9258C27.9432 25.2845 29.612 26.7038 32.2184 26.7038Z" fill="#FDFBF5"/>
<path d="M39.8599 26.5019H41.2336V15.5796H39.8599V26.5019Z" fill="#FDFBF5"/>
<path d="M50.5639 26.7038C53.8885 26.7038 56.2279 24.3644 56.2279 21.0397C56.2279 17.7173 53.8885 15.3757 50.5639 15.3757C47.2392 15.3757 44.915 17.7173 44.915 21.0397C44.915 24.3644 47.2392 26.7038 50.5639 26.7038ZM46.3191 21.0397C46.3191 18.4963 48.0508 16.7494 50.5639 16.7494C53.0769 16.7494 54.8087 18.4963 54.8087 21.0397C54.8087 23.5831 53.0769 25.3323 50.5639 25.3323C48.0508 25.3323 46.3191 23.5831 46.3191 21.0397Z" fill="#FDFBF5"/>
<path d="M59.8901 26.5019H61.2486V17.9516L67.2881 26.5019H68.5663V15.5796H67.2252V24.1299L61.1857 15.5796H59.8901V26.5019Z" fill="#FDFBF5"/>
<path d="M84.2786 26.4037C86.9934 26.4037 88.5994 25.1233 88.5994 22.9705C88.5994 21.1606 87.4296 20.0994 84.7777 19.507C83.3737 19.1945 82.8593 18.8516 82.8593 18.2895C82.8593 17.7579 83.3259 17.4302 84.0594 17.4302C84.934 17.4302 85.4331 17.8837 85.4331 18.7106H88.3975C88.3975 16.4645 86.6809 15.0126 83.9965 15.0126C81.4227 15.0126 79.832 16.293 79.832 18.3525C79.832 20.1928 81.0321 21.3321 83.4974 21.8008C84.8233 22.0656 85.4635 22.4714 85.4635 23.0964C85.4635 23.6411 84.9969 23.9536 84.2309 23.9536C83.3259 23.9536 82.7964 23.4697 82.7964 22.6277H79.7539C79.7539 24.9844 81.4379 26.4037 84.2786 26.4037Z" fill="#FDFBF5"/>
<path d="M92.9375 26.1692H96.0733V18.1636H99.398V15.2469H89.6128V18.1636H92.9375V26.1692Z" fill="#FDFBF5"/>
<path d="M105.684 26.4036C108.633 26.4036 110.461 24.6089 110.461 21.6749V15.2469H107.323V21.473C107.323 22.7686 106.778 23.4544 105.684 23.4544C104.593 23.4544 104.046 22.7686 104.046 21.473V15.2469H100.895V21.6749C100.895 24.6089 102.735 26.4036 105.684 26.4036Z" fill="#FDFBF5"/>
<path d="M112.69 26.1692H117.326C120.852 26.1692 123.191 24.0013 123.191 20.707C123.191 17.4301 120.852 15.2469 117.326 15.2469H112.69V26.1692ZM115.841 23.3459V18.0703H117.23C118.901 18.0703 119.978 19.1011 119.978 20.707C119.978 22.3151 118.901 23.3459 117.23 23.3459H115.841Z" fill="#FDFBF5"/>
<path d="M124.876 26.1692H128.027V15.2469H124.876V26.1692Z" fill="#FDFBF5"/>
<path d="M135.658 26.4037C139.137 26.4037 141.602 24.0469 141.602 20.7071C141.602 17.3694 139.137 15.0126 135.658 15.0126C132.18 15.0126 129.712 17.3694 129.712 20.7071C129.712 24.0469 132.18 26.4037 135.658 26.4037ZM132.911 20.7071C132.911 19.0686 134.05 17.9315 135.658 17.9315C137.282 17.9315 138.404 19.0686 138.404 20.7071C138.404 22.3455 137.282 23.4849 135.658 23.4849C134.05 23.4849 132.911 22.3455 132.911 20.7071Z" fill="#FDFBF5"/>
</g>
<defs>
<clipPath id="clip0_35_269">
<rect width="148" height="42" fill="white"/>
</clipPath>
</defs>
</svg>
